<?xml version="1.0" encoding="UTF-8" standalone="no"?>
<svg width="99px" height="99px" viewBox="0 0 99 99" version="1.1" xmlns="http://www.w3.org/2000/svg" xmlns:xlink="http://www.w3.org/1999/xlink" xmlns:sketch="http://www.bohemiancoding.com/sketch/ns">
    <!-- Generator: Sketch 3.5.1 (25234) - http://www.bohemiancoding.com/sketch -->
    <title>Group 2</title>
    <desc>Created with Sketch.</desc>
    <defs></defs>
    <g id="Page-1" stroke="none" stroke-width="1" fill="none" fill-rule="evenodd" sketch:type="MSPage">
        <g id="Desktop-HD" sketch:type="MSArtboardGroup" transform="translate(-109.000000, -839.000000)">
            <g id="Group-2" sketch:type="MSLayerGroup" transform="translate(112.000000, 842.000000)">
                <path d="M46.5,93 C72.1812409,93 93,72.1812409 93,46.5 C93,20.8187591 72.1812409,0 46.5,0 C20.8187591,0 0,20.8187591 0,46.5 C0,72.1812409 20.8187591,93 46.5,93 Z" id="Oval-12" stroke="#000000" stroke-width="6" sketch:type="MSShapeGroup"></path>
                <g id="Idea" transform="translate(23.028571, 10.628571)" sketch:type="MSShapeGroup">
                    <g id="Group">
                        <path d="M45.1905781,40.6225998 C45.1905781,32.4549392 38.5849944,25.8337649 30.4366532,25.8337649 C22.2883121,25.8337649 15.6827284,32.4549392 15.6827284,40.6225998 C15.6827284,51.530897 24.5347821,51.3077829 24.5347821,57.1017884 L24.5347821,64.2555544 C24.5347821,66.2991262 26.1875618,67.9557579 28.2263097,67.9557579 L33.0322607,67.9557579 C35.0710086,67.9557579 36.7237297,66.2991262 36.7237297,64.2555544 L36.7237297,57.1017884 C36.7237101,51.0846689 45.1905781,51.530897 45.1905781,40.6225998 L45.1905781,40.6225998 L45.1905781,40.6225998 Z" id="Shape" fill="#4EFFBB"></path>
                        <path d="M25.0966881,62.5646125 L20.2912652,62.5646125 C16.8454247,62.5646125 14.0425254,59.7551007 14.0425254,56.3011069 L14.0425254,49.1472233 C14.0425254,47.9814817 13.3533847,47.2694185 11.5268577,45.6757019 C8.8525818,43.3417485 5.19072599,40.1443162 5.19072599,32.6681524 C5.19072599,23.1008138 12.9563459,15.3167996 22.5011002,15.3167996 C32.0458544,15.3167996 39.8114743,23.1008138 39.8114743,32.6681524 C39.8114743,40.0673242 36.3394241,43.2071938 33.8037666,45.499877 C31.9821881,47.1461568 31.3454474,47.8394377 31.3454474,49.1472233 L31.3454474,56.3011069 C31.3454474,59.7551007 28.5425872,62.5646125 25.0966881,62.5646125 L25.0966881,62.5646125 L25.0966881,62.5646125 Z M22.5011002,20.4427372 C15.7754797,20.4427372 10.3045635,25.9272258 10.3045635,32.6681524 C10.3045635,37.811598 12.5293615,39.7538274 14.8853062,41.8105939 C16.8878689,43.5576084 19.1563629,45.5380103 19.1563629,49.1472233 L19.1563629,56.3011069 C19.1563629,56.9280809 19.6657711,57.4386945 20.2912652,57.4386945 L25.0966881,57.4386945 C25.7221821,57.4386945 26.2315903,56.9280809 26.2315903,56.3011069 L26.2315903,49.1472233 C26.2315903,45.4435495 28.4339536,43.4512665 30.3778377,41.6936061 C32.598939,39.685011 34.6976173,37.7878161 34.6976173,32.668172 C34.6976173,25.9272258 29.2267598,20.4427372 22.5011002,20.4427372 L22.5011002,20.4427372 L22.5011002,20.4427372 Z" id="Shape" fill="#222051"></path>
                        <path d="M28.7885091,54.863825 L16.5994442,54.863825 C15.187403,54.863825 14.0425254,53.7162384 14.0425254,52.3008562 C14.0425254,50.8854739 15.187403,49.737907 16.5994442,49.737907 L28.7885091,49.737907 C30.2005502,49.737907 31.3454278,50.8854543 31.3454278,52.3008562 C31.3454278,53.716258 30.2005698,54.863825 28.7885091,54.863825 L28.7885091,54.863825 L28.7885091,54.863825 Z" id="Shape" fill="#222051"></path>
                        <path d="M18.6946603,54.4511816 C18.6946603,56.4947534 18.6977116,58.1514047 20.0355048,58.1514047 L25.3520572,58.1514047 C26.6898504,58.1514047 26.6929017,56.4947338 26.6929017,54.4511816 L18.6946603,54.4511816 L18.6946603,54.4511816 L18.6946603,54.4511816 Z" id="Shape" stroke="#222051" stroke-width="4" fill="#302C58"></path>
                        <path d="M28.375275,35.7523219 C26.9632339,35.7523219 25.8183563,34.6047745 25.8183563,33.1893727 C25.8183563,31.3553673 24.3301503,29.86364 22.5011002,29.86364 C20.67205,29.86364 19.183844,31.3553673 19.183844,33.1893727 C19.183844,34.6047549 18.0389664,35.7523219 16.6269253,35.7523219 C15.2148841,35.7523219 14.0700652,34.6047745 14.0700652,33.1893727 C14.0700652,28.5289553 17.8517231,24.7376828 22.5011197,24.7376828 C27.1505163,24.7376828 30.9322329,28.5289553 30.9322329,33.1893727 C30.9321938,34.6047745 29.7873162,35.7523219 28.375275,35.7523219 L28.375275,35.7523219 L28.375275,35.7523219 Z" id="Shape" fill="#222051"></path>
                        <path d="M22.6933507,11.6237718 C21.2813096,11.6237718 20.136432,10.4761853 20.136432,9.06080301 L20.136432,2.76100704 C20.136432,1.3456248 21.2813096,0.198057838 22.6933507,0.198057838 C24.1053919,0.198057838 25.2502695,1.34560519 25.2502695,2.76100704 L25.2502695,9.06080301 C25.2502695,10.4761853 24.1054114,11.6237718 22.6933507,11.6237718 L22.6933507,11.6237718 L22.6933507,11.6237718 Z" id="Shape" fill="#222051"></path>
                        <path d="M7.33566249,17.4136208 C6.6814551,17.4136208 6.02722814,17.1633331 5.52779526,16.6627577 L1.08439956,12.2082209 C0.0856511548,11.2070504 0.0856511548,9.58455247 1.08439956,8.58340166 C2.08320664,7.58348602 3.70124869,7.58285864 4.70005577,8.58402905 L9.14345148,13.0385267 C10.1422586,14.0396971 10.1422586,15.6621951 9.14345148,16.6633655 C8.64407727,17.1633331 7.98986988,17.4136208 7.33566249,17.4136208 L7.33566249,17.4136208 L7.33566249,17.4136208 Z" id="Shape" fill="#222051"></path>
                        <path d="M38.0511172,17.4136208 C37.3969098,17.4136208 36.7426828,17.1633331 36.24325,16.6627577 C35.2445015,15.6615873 35.2445015,14.0390893 36.24325,13.0379189 L40.6878975,8.58342127 C41.6867045,7.58350563 43.3047466,7.58287824 44.3035537,8.58404865 C45.3023608,9.58519946 45.3023608,11.2076974 44.3035537,12.2088678 L39.8589062,16.6634047 C39.3595515,17.1633331 38.7053246,17.4136208 38.0511172,17.4136208 L38.0511172,17.4136208 L38.0511172,17.4136208 Z" id="Shape" fill="#222051"></path>
                    </g>
                </g>
            </g>
        </g>
    </g>
</svg>